# 3ds Max Wavefront OBJ Exporter v0.97b - (c)2007 guruware
# File Created: 13.10.2015 20:43:46

mtllib Character 2.mtl

#
# object Character_2
#

v  0.5656 1.4292 0.2702
v  0.5656 2.0958 0.2702
v  -0.4344 2.0958 0.2702
v  -0.4344 1.4292 0.2702
v  0.5656 2.4292 0.2702
v  0.5656 2.4292 -0.7298
v  -0.4344 2.4292 -0.7298
v  -0.4344 2.4292 0.2702
v  0.5656 2.0958 -0.7298
v  0.5656 1.4292 -0.7298
v  -0.4344 1.4292 -0.7298
v  -0.4344 2.0958 -0.7298
v  0.5656 2.0958 0.7298
v  0.5656 2.2248 0.7298
v  -0.4344 2.2248 0.7298
v  -0.4344 2.0958 0.7298
v  -0.4344 2.2248 0.2702
v  -0.4344 2.2248 -0.7298
v  0.5656 2.2248 -0.7298
v  0.5656 2.2248 0.2702
v  0.7072 0.3689 0.1555
v  0.7072 1.3689 0.1555
v  -0.7215 1.3689 0.1555
v  -0.7215 0.3689 0.1555
v  0.7072 1.3689 -0.6151
v  -0.7215 1.3689 -0.6151
v  0.7072 0.3689 -0.6151
v  -0.7215 0.3689 -0.6151
v  0.7072 -0.5871 -0.6151
v  0.7072 -0.5871 0.1555
v  -0.7215 -0.5871 0.1555
v  -0.7215 -0.5871 -0.6151
v  1.2060 0.8923 0.0043
v  1.2060 1.3605 0.0043
v  0.7378 1.3605 0.0043
v  0.7378 0.8923 0.0043
v  1.2060 1.3605 -0.4639
v  0.7378 1.3605 -0.4639
v  1.2060 0.8923 -0.4639
v  0.7378 0.8923 -0.4639
v  1.2060 -1.0254 -0.4639
v  1.2060 -1.0254 0.0043
v  0.7378 -1.0254 0.0043
v  0.7378 -1.0254 -0.4639
v  1.2060 0.3353 -0.4639
v  0.7378 0.3353 -0.4639
v  1.2060 0.3353 0.0043
v  0.7378 0.3353 0.0043
v  1.2060 0.2458 -0.4639
v  0.7378 0.2458 -0.4639
v  1.2060 0.2458 0.0043
v  0.7378 0.2458 0.0043
v  1.2060 0.1405 -0.4639
v  0.7378 0.1405 -0.4639
v  1.2060 0.1405 0.0043
v  0.7378 0.1405 0.0043
v  1.2060 -0.4484 -0.4639
v  0.7378 -0.4484 -0.4639
v  1.2060 -0.4484 0.0043
v  0.7378 -0.4484 0.0043
v  1.2060 -0.5710 -0.4639
v  0.7378 -0.5710 -0.4639
v  1.2060 -0.5710 0.0043
v  0.7378 -0.5710 0.0043
v  -0.7378 0.8923 0.0043
v  -0.7378 1.3605 0.0043
v  -1.2060 1.3605 0.0043
v  -1.2060 0.8923 0.0043
v  -0.7378 1.3605 -0.4639
v  -1.2060 1.3605 -0.4639
v  -0.7378 0.8923 -0.4639
v  -1.2060 0.8923 -0.4639
v  -0.7378 -1.0254 -0.4639
v  -0.7378 -1.0254 0.0043
v  -1.2060 -1.0254 0.0043
v  -1.2060 -1.0254 -0.4639
v  -0.7378 0.3353 -0.4639
v  -1.2060 0.3353 -0.4639
v  -0.7378 0.3353 0.0043
v  -1.2060 0.3353 0.0043
v  -0.7378 0.2458 -0.4639
v  -1.2060 0.2458 -0.4639
v  -0.7378 0.2458 0.0043
v  -1.2060 0.2458 0.0043
v  -0.7378 0.1405 -0.4639
v  -1.2060 0.1405 -0.4639
v  -0.7378 0.1405 0.0043
v  -1.2060 0.1405 0.0043
v  -0.7378 -0.4484 -0.4639
v  -1.2060 -0.4484 -0.4639
v  -0.7378 -0.4484 0.0043
v  -1.2060 -0.4484 0.0043
v  -0.7378 -0.5710 -0.4639
v  -1.2060 -0.5710 -0.4639
v  -0.7378 -0.5710 0.0043
v  -1.2060 -0.5710 0.0043
v  0.6506 -2.4292 -0.4590
v  0.6506 -2.4292 -0.0006
v  0.0266 -2.4292 -0.0006
v  0.0266 -2.4292 -0.4590
v  0.0266 -1.5352 -0.0006
v  0.6506 -1.5352 -0.0006
v  0.6506 -1.4113 -0.0006
v  0.0266 -1.4113 -0.0006
v  0.0266 -1.4113 -0.4590
v  0.0266 -1.5352 -0.4590
v  0.6506 -1.5352 -0.4590
v  0.6506 -1.4113 -0.4590
v  0.6506 -1.3291 -0.0006
v  0.6506 -1.2142 -0.0006
v  0.0266 -1.2142 -0.0006
v  0.0266 -1.3291 -0.0006
v  0.6506 -1.2142 -0.4590
v  0.6506 -1.3291 -0.4590
v  0.0266 -1.3291 -0.4590
v  0.0266 -1.2142 -0.4590
v  0.6506 -2.1073 -0.4590
v  0.0266 -2.1073 -0.4590
v  0.6506 -2.1073 -0.0006
v  0.0266 -2.1073 -0.0006
v  0.6506 -2.1552 -0.0006
v  0.6506 -2.1552 -0.4590
v  0.0266 -2.1552 -0.4590
v  0.0266 -2.1552 -0.0006
v  0.0266 -2.1552 0.4523
v  0.0266 -2.4292 0.4523
v  0.6506 -2.4292 0.4523
v  0.6506 -2.1552 0.4523
v  0.0266 -2.1552 0.0542
v  0.6506 -2.1552 0.0542
v  0.0266 -2.4292 0.0542
v  0.6506 -2.4292 0.0542
v  0.6506 -0.4732 -0.0006
v  0.0266 -0.4732 -0.0006
v  0.0266 -0.4732 -0.4590
v  0.6506 -0.4732 -0.4590
v  -0.0432 -2.4292 -0.4590
v  -0.0432 -2.4292 -0.0006
v  -0.6672 -2.4292 -0.0006
v  -0.6672 -2.4292 -0.4590
v  -0.6672 -1.5352 -0.0006
v  -0.0432 -1.5352 -0.0006
v  -0.0432 -1.4113 -0.0006
v  -0.6672 -1.4113 -0.0006
v  -0.6672 -1.4113 -0.4590
v  -0.6672 -1.5352 -0.4590
v  -0.0432 -1.5352 -0.4590
v  -0.0432 -1.4113 -0.4590
v  -0.0432 -1.3291 -0.0006
v  -0.0432 -1.2142 -0.0006
v  -0.6672 -1.2142 -0.0006
v  -0.6672 -1.3291 -0.0006
v  -0.0432 -1.2142 -0.4590
v  -0.0432 -1.3291 -0.4590
v  -0.6672 -1.3291 -0.4590
v  -0.6672 -1.2142 -0.4590
v  -0.0432 -2.1073 -0.4590
v  -0.6672 -2.1073 -0.4590
v  -0.0432 -2.1073 -0.0006
v  -0.6672 -2.1073 -0.0006
v  -0.0432 -2.1552 -0.0006
v  -0.0432 -2.1552 -0.4590
v  -0.6672 -2.1552 -0.4590
v  -0.6672 -2.1552 -0.0006
v  -0.6672 -2.1552 0.4523
v  -0.6672 -2.4292 0.4523
v  -0.0432 -2.4292 0.4523
v  -0.0432 -2.1552 0.4523
v  -0.6672 -2.1552 0.0542
v  -0.0432 -2.1552 0.0542
v  -0.6672 -2.4292 0.0542
v  -0.0432 -2.4292 0.0542
v  -0.0432 -0.4732 -0.0006
v  -0.6672 -0.4732 -0.0006
v  -0.6672 -0.4732 -0.4590
v  -0.0432 -0.4732 -0.4590
# 176 vertices

vn 0.0000 0.0000 1.0000
vn 0.0000 1.0000 -0.0000
vn 0.0000 0.0000 -1.0000
vn 0.0000 -1.0000 -0.0000
vn 1.0000 0.0000 -0.0000
vn -1.0000 0.0000 -0.0000
# 6 vertex normals

vt 0.5598 0.8322 0.0000
vt 0.5598 0.8695 0.0000
vt 0.5038 0.8696 0.0000
vt 0.5038 0.8323 0.0000
vt 0.8919 0.4509 0.0000
vt 0.8919 0.4981 0.0000
vt 0.8447 0.4981 0.0000
vt 0.8447 0.4509 0.0000
vt 0.5596 0.7389 0.0000
vt 0.5597 0.7762 0.0000
vt 0.5037 0.7763 0.0000
vt 0.5037 0.7390 0.0000
vt 0.6158 0.8321 0.0000
vt 0.6158 0.8694 0.0000
vt 0.4479 0.8697 0.0000
vt 0.4478 0.8323 0.0000
vt 0.8919 0.4135 0.0000
vt 0.8919 0.4196 0.0000
vt 0.8447 0.4196 0.0000
vt 0.8447 0.4135 0.0000
vt 0.8290 0.4509 0.0000
vt 0.8350 0.4509 0.0000
vt 0.8350 0.4981 0.0000
vt 0.8290 0.4981 0.0000
vt 0.8919 0.5077 0.0000
vt 0.8919 0.5138 0.0000
vt 0.8447 0.5138 0.0000
vt 0.8447 0.5077 0.0000
vt 0.9076 0.4981 0.0000
vt 0.9015 0.4981 0.0000
vt 0.9015 0.4509 0.0000
vt 0.9076 0.4509 0.0000
vt 0.8919 0.4412 0.0000
vt 0.8447 0.4412 0.0000
vt 0.8919 0.3918 0.0000
vt 0.8447 0.3918 0.0000
vt 0.9015 0.4292 0.0000
vt 0.9076 0.4292 0.0000
vt 0.8290 0.4292 0.0000
vt 0.8350 0.4292 0.0000
vt 0.8844 0.1163 0.0000
vt 0.8844 0.1790 0.0000
vt 0.7948 0.1790 0.0000
vt 0.7948 0.1163 0.0000
vt 0.8844 0.2273 0.0000
vt 0.7948 0.2273 0.0000
vt 0.8844 0.2901 0.0000
vt 0.7948 0.2901 0.0000
vt 0.8844 0.0080 0.0000
vt 0.8844 0.0564 0.0000
vt 0.7948 0.0564 0.0000
vt 0.7948 0.0080 0.0000
vt 0.9511 0.1611 0.0000
vt 0.9511 0.2927 0.0000
vt 0.7543 0.2927 0.0000
vt 0.7543 0.1611 0.0000
vt 0.9327 0.0564 0.0000
vt 0.9327 0.1163 0.0000
vt 0.7464 0.1163 0.0000
vt 0.7464 0.0564 0.0000
vt 0.9327 0.1790 0.0000
vt 0.7464 0.1790 0.0000
vt 0.9331 0.1782 0.0000
vt 0.9331 0.2148 0.0000
vt 0.8964 0.2148 0.0000
vt 0.8964 0.1782 0.0000
vt 0.8621 0.1407 0.0000
vt 0.8621 0.2082 0.0000
vt 0.7946 0.2082 0.0000
vt 0.7946 0.1407 0.0000
vt 0.8232 0.2148 0.0000
vt 0.8232 0.1782 0.0000
vt 0.8598 0.1782 0.0000
vt 0.8598 0.2148 0.0000
vt 0.6162 0.8270 0.0000
vt 0.6162 0.8945 0.0000
vt 0.5487 0.8945 0.0000
vt 0.5487 0.8270 0.0000
vt 0.7865 0.2148 0.0000
vt 0.7865 0.1782 0.0000
vt 0.8232 0.1346 0.0000
vt 0.8598 0.1346 0.0000
vt 0.7865 0.1346 0.0000
vt 0.8964 0.1346 0.0000
vt 0.9331 0.1346 0.0000
vt 0.4571 0.9023 0.0000
vt 0.4571 0.8916 0.0000
vt 0.5130 0.8916 0.0000
vt 0.5130 0.9023 0.0000
vt 0.4011 0.9023 0.0000
vt 0.4011 0.8916 0.0000
vt 0.5690 0.9023 0.0000
vt 0.5690 0.8916 0.0000
vt 0.6249 0.8916 0.0000
vt 0.6249 0.9023 0.0000
vt 0.4571 0.8790 0.0000
vt 0.5130 0.8790 0.0000
vt 0.4011 0.8790 0.0000
vt 0.5690 0.8790 0.0000
vt 0.6249 0.8790 0.0000
vt 0.4571 0.8087 0.0000
vt 0.5130 0.8087 0.0000
vt 0.4011 0.8087 0.0000
vt 0.5690 0.8087 0.0000
vt 0.6249 0.8087 0.0000
vt 0.4571 0.7940 0.0000
vt 0.5130 0.7940 0.0000
vt 0.4011 0.7940 0.0000
vt 0.5690 0.7940 0.0000
vt 0.6249 0.7940 0.0000
vt 0.4571 0.7397 0.0000
vt 0.5130 0.7397 0.0000
vt 0.4011 0.7397 0.0000
vt 0.5690 0.7397 0.0000
vt 0.6249 0.7397 0.0000
vt 0.5919 0.8793 0.0000
vt 0.5506 0.8792 0.0000
vt 0.5508 0.8230 0.0000
vt 0.5921 0.8231 0.0000
vt 0.5242 0.5145 0.0000
vt 0.5947 0.5145 0.0000
vt 0.5947 0.5285 0.0000
vt 0.5242 0.5285 0.0000
vt 0.4724 0.5285 0.0000
vt 0.4724 0.5145 0.0000
vt 0.6465 0.5145 0.0000
vt 0.6465 0.5285 0.0000
vt 0.4018 0.5285 0.0000
vt 0.4018 0.5145 0.0000
vt 0.5947 0.5378 0.0000
vt 0.5947 0.5508 0.0000
vt 0.5242 0.5508 0.0000
vt 0.5242 0.5378 0.0000
vt 0.4018 0.5508 0.0000
vt 0.4018 0.5378 0.0000
vt 0.4724 0.5378 0.0000
vt 0.4724 0.5508 0.0000
vt 0.4018 0.4498 0.0000
vt 0.4724 0.4498 0.0000
vt 0.5947 0.4498 0.0000
vt 0.6465 0.4498 0.0000
vt 0.5242 0.4498 0.0000
vt 0.6465 0.5378 0.0000
vt 0.6465 0.5508 0.0000
vt 0.5505 0.9039 0.0000
vt 0.5918 0.9040 0.0000
vt 0.6166 0.8794 0.0000
vt 0.6168 0.8232 0.0000
vt 0.5922 0.7984 0.0000
vt 0.5509 0.7983 0.0000
vt 0.4853 0.8227 0.0000
vt 0.5100 0.8228 0.0000
vt 0.5098 0.8790 0.0000
vt 0.4851 0.8789 0.0000
vt 0.5049 0.8228 0.0000
vt 0.4495 0.8226 0.0000
vt 0.4492 0.8788 0.0000
vt 0.5047 0.8790 0.0000
vt 0.5459 0.8229 0.0000
vt 0.5460 0.7983 0.0000
vt 0.5457 0.8792 0.0000
vt 0.5456 0.9038 0.0000
vt 0.5947 0.6345 0.0000
vt 0.5242 0.6345 0.0000
vt 0.4724 0.6345 0.0000
vt 0.4018 0.6345 0.0000
vt 0.6465 0.6345 0.0000
vt 0.5097 0.9037 0.0000
vt 0.5101 0.7981 0.0000
vt 0.4402 0.8225 0.0000
vt 0.4400 0.8787 0.0000
vt 0.5505 0.9082 0.0000
vt 0.5918 0.9083 0.0000
vt 0.6209 0.8795 0.0000
vt 0.6211 0.8232 0.0000
vt 0.5922 0.7941 0.0000
vt 0.5509 0.7940 0.0000
# 177 texture coords

g Character_2
usemtl _Character_2phong3SG
s off
f 1/1/1 2/2/1 3/3/1 4/4/1 
f 5/5/2 6/6/2 7/7/2 8/8/2 
s 1
f 9/9/3 10/10/3 11/11/3 12/12/3 
s off
f 10/10/4 1/1/4 4/4/4 11/11/4 
s 2
f 10/13/5 9/14/5 2/2/5 1/1/5 
s 3
f 4/4/6 3/3/6 12/15/6 11/16/6 
s off
f 13/17/1 14/18/1 15/19/1 16/20/1 
s 3
f 3/21/6 17/22/6 18/23/6 12/24/6 
s 1
f 19/25/3 9/26/3 12/27/3 18/28/3 
s 2
f 9/29/5 19/30/5 20/31/5 2/32/5 
s off
f 20/33/1 5/5/1 8/8/1 17/34/1 
s 3
f 17/22/6 8/8/6 7/7/6 18/23/6 
s 1
f 6/6/3 19/25/3 18/28/3 7/7/3 
s 2
f 19/30/5 6/6/5 5/5/5 20/31/5 
s off
f 2/35/4 13/17/4 16/20/4 3/36/4 
s 2
f 20/31/5 14/37/5 13/38/5 2/32/5 
s off
f 17/34/2 15/19/2 14/18/2 20/33/2 
s 3
f 3/21/6 16/39/6 15/40/6 17/22/6 
s 4
f 21/41/1 22/42/1 23/43/1 24/44/1 
s off
f 22/42/2 25/45/2 26/46/2 23/43/2 
s 5
f 25/45/3 27/47/3 28/48/3 26/46/3 
s off
f 29/49/4 30/50/4 31/51/4 32/52/4 
s 5
f 27/53/3 29/54/3 32/55/3 28/56/3 
s off
f 21/41/5 30/50/5 29/57/5 27/58/5 
s 4
f 24/44/1 31/51/1 30/50/1 21/41/1 
s off
f 28/59/6 32/60/6 31/51/6 24/44/6 
f 21/41/5 27/58/5 25/61/5 22/42/5 
f 26/62/6 28/59/6 24/44/6 23/43/6 
s 6
f 33/63/1 34/64/1 35/65/1 36/66/1 
s off
f 34/67/2 37/68/2 38/69/2 35/70/2 
s 7
f 37/71/3 39/72/3 40/73/3 38/74/3 
s off
f 41/75/4 42/76/4 43/77/4 44/78/4 
s 8
f 39/72/5 37/71/5 34/79/5 33/80/5 
s 9
f 36/66/6 35/65/6 38/74/6 40/73/6 
s 7
f 39/72/3 45/81/3 46/82/3 40/73/3 
s 8
f 33/80/5 47/83/5 45/81/5 39/72/5 
s 6
f 36/66/1 48/84/1 47/85/1 33/63/1 
s 9
f 40/73/6 46/82/6 48/84/6 36/66/6 
s 7
f 45/86/3 49/87/3 50/88/3 46/89/3 
s 8
f 47/90/5 51/91/5 49/87/5 45/86/5 
s 6
f 48/92/1 52/93/1 51/94/1 47/95/1 
s 9
f 46/89/6 50/88/6 52/93/6 48/92/6 
s 7
f 49/87/3 53/96/3 54/97/3 50/88/3 
s 8
f 51/91/5 55/98/5 53/96/5 49/87/5 
s 6
f 52/93/1 56/99/1 55/100/1 51/94/1 
s 9
f 50/88/6 54/97/6 56/99/6 52/93/6 
s 7
f 53/96/3 57/101/3 58/102/3 54/97/3 
s 8
f 55/98/5 59/103/5 57/101/5 53/96/5 
s 6
f 56/99/1 60/104/1 59/105/1 55/100/1 
s 9
f 54/97/6 58/102/6 60/104/6 56/99/6 
s 7
f 57/101/3 61/106/3 62/107/3 58/102/3 
s 8
f 59/103/5 63/108/5 61/106/5 57/101/5 
s 6
f 60/104/1 64/109/1 63/110/1 59/105/1 
s 9
f 58/102/6 62/107/6 64/109/6 60/104/6 
s 7
f 61/106/3 41/111/3 44/112/3 62/107/3 
s 8
f 63/108/5 42/113/5 41/111/5 61/106/5 
s 6
f 64/109/1 43/114/1 42/115/1 63/110/1 
s 9
f 62/107/6 44/112/6 43/114/6 64/109/6 
s 10
f 65/63/1 66/64/1 67/65/1 68/66/1 
s off
f 66/67/2 69/68/2 70/69/2 67/70/2 
s 11
f 69/71/3 71/72/3 72/73/3 70/74/3 
s off
f 73/75/4 74/76/4 75/77/4 76/78/4 
s 12
f 71/72/5 69/71/5 66/79/5 65/80/5 
s 13
f 68/66/6 67/65/6 70/74/6 72/73/6 
s 11
f 71/72/3 77/81/3 78/82/3 72/73/3 
s 12
f 65/80/5 79/83/5 77/81/5 71/72/5 
s 10
f 68/66/1 80/84/1 79/85/1 65/63/1 
s 13
f 72/73/6 78/82/6 80/84/6 68/66/6 
s 11
f 77/86/3 81/87/3 82/88/3 78/89/3 
s 12
f 79/90/5 83/91/5 81/87/5 77/86/5 
s 10
f 80/92/1 84/93/1 83/94/1 79/95/1 
s 13
f 78/89/6 82/88/6 84/93/6 80/92/6 
s 11
f 81/87/3 85/96/3 86/97/3 82/88/3 
s 12
f 83/91/5 87/98/5 85/96/5 81/87/5 
s 10
f 84/93/1 88/99/1 87/100/1 83/94/1 
s 13
f 82/88/6 86/97/6 88/99/6 84/93/6 
s 11
f 85/96/3 89/101/3 90/102/3 86/97/3 
s 12
f 87/98/5 91/103/5 89/101/5 85/96/5 
s 10
f 88/99/1 92/104/1 91/105/1 87/100/1 
s 13
f 86/97/6 90/102/6 92/104/6 88/99/6 
s 11
f 89/101/3 93/106/3 94/107/3 90/102/3 
s 12
f 91/103/5 95/108/5 93/106/5 89/101/5 
s 10
f 92/104/1 96/109/1 95/110/1 91/105/1 
s 13
f 90/102/6 94/107/6 96/109/6 92/104/6 
s 11
f 93/106/3 73/111/3 76/112/3 94/107/3 
s 12
f 95/108/5 74/113/5 73/111/5 93/106/5 
s 10
f 96/109/1 75/114/1 74/115/1 95/110/1 
s 13
f 94/107/6 76/112/6 75/114/6 96/109/6 
s 14
f 97/116/4 98/117/4 99/118/4 100/119/4 
s 15
f 101/120/1 102/121/1 103/122/1 104/123/1 
s 16
f 104/123/6 105/124/6 106/125/6 101/120/6 
s 17
f 102/121/5 107/126/5 108/127/5 103/122/5 
s 18
f 105/124/3 108/128/3 107/129/3 106/125/3 
s 15
f 109/130/1 110/131/1 111/132/1 112/133/1 
s 18
f 113/134/3 114/135/3 115/136/3 116/137/3 
f 107/129/3 117/138/3 118/139/3 106/125/3 
s 17
f 102/121/5 119/140/5 117/141/5 107/126/5 
s 15
f 101/120/1 120/142/1 119/140/1 102/121/1 
s 16
f 106/125/6 118/139/6 120/142/6 101/120/6 
s 17
f 110/131/5 109/130/5 114/143/5 113/144/5 
s 16
f 116/137/6 115/136/6 112/133/6 111/132/6 
s 17
f 121/145/5 98/117/5 97/116/5 122/146/5 
s 18
f 122/147/3 97/116/3 100/119/3 123/148/3 
s 16
f 123/149/6 100/119/6 99/118/6 124/150/6 
s off
f 125/151/1 126/152/1 127/153/1 128/154/1 
s 22
f 124/155/2 129/156/2 130/157/2 121/158/2 
s 16
f 99/118/6 131/159/6 129/160/6 124/150/6 
s 14
f 98/117/4 132/161/4 131/159/4 99/118/4 
s 17
f 121/145/5 130/162/5 132/161/5 98/117/5 
s 18
f 114/135/3 108/128/3 105/124/3 115/136/3 
s 16
f 115/136/6 105/124/6 104/123/6 112/133/6 
s 15
f 103/122/1 109/130/1 112/133/1 104/123/1 
s 17
f 109/130/5 103/122/5 108/127/5 114/143/5 
s 15
f 110/131/1 133/163/1 134/164/1 111/132/1 
s 16
f 135/165/6 116/137/6 111/132/6 134/164/6 
s 18
f 136/166/3 113/134/3 116/137/3 135/165/3 
s 17
f 110/131/5 113/144/5 136/167/5 133/163/5 
s 22
f 129/156/2 125/151/2 128/154/2 130/157/2 
s 17
f 130/162/5 128/168/5 127/153/5 132/161/5 
s 14
f 132/161/4 127/153/4 126/152/4 131/159/4 
s 16
f 131/159/6 126/152/6 125/169/6 129/160/6 
s 15
f 120/170/1 124/155/1 121/158/1 119/171/1 
s 17
f 119/172/5 121/145/5 122/146/5 117/173/5 
s 18
f 117/174/3 122/147/3 123/148/3 118/175/3 
s 16
f 118/176/6 123/149/6 124/150/6 120/177/6 
s 23
f 137/116/4 138/117/4 139/118/4 140/119/4 
s 24
f 141/120/1 142/121/1 143/122/1 144/123/1 
s 25
f 144/123/6 145/124/6 146/125/6 141/120/6 
s 26
f 142/121/5 147/126/5 148/127/5 143/122/5 
s 27
f 145/124/3 148/128/3 147/129/3 146/125/3 
s 24
f 149/130/1 150/131/1 151/132/1 152/133/1 
s 27
f 153/134/3 154/135/3 155/136/3 156/137/3 
f 147/129/3 157/138/3 158/139/3 146/125/3 
s 26
f 142/121/5 159/140/5 157/141/5 147/126/5 
s 24
f 141/120/1 160/142/1 159/140/1 142/121/1 
s 25
f 146/125/6 158/139/6 160/142/6 141/120/6 
s 26
f 150/131/5 149/130/5 154/143/5 153/144/5 
s 25
f 156/137/6 155/136/6 152/133/6 151/132/6 
s 26
f 161/145/5 138/117/5 137/116/5 162/146/5 
s 27
f 162/147/3 137/116/3 140/119/3 163/148/3 
s 25
f 163/149/6 140/119/6 139/118/6 164/150/6 
s off
f 165/151/1 166/152/1 167/153/1 168/154/1 
s 31
f 164/155/2 169/156/2 170/157/2 161/158/2 
s 25
f 139/118/6 171/159/6 169/160/6 164/150/6 
s 23
f 138/117/4 172/161/4 171/159/4 139/118/4 
s 26
f 161/145/5 170/162/5 172/161/5 138/117/5 
s 27
f 154/135/3 148/128/3 145/124/3 155/136/3 
s 25
f 155/136/6 145/124/6 144/123/6 152/133/6 
s 24
f 143/122/1 149/130/1 152/133/1 144/123/1 
s 26
f 149/130/5 143/122/5 148/127/5 154/143/5 
s 24
f 150/131/1 173/163/1 174/164/1 151/132/1 
s 25
f 175/165/6 156/137/6 151/132/6 174/164/6 
s 27
f 176/166/3 153/134/3 156/137/3 175/165/3 
s 26
f 150/131/5 153/144/5 176/167/5 173/163/5 
s 31
f 169/156/2 165/151/2 168/154/2 170/157/2 
s 26
f 170/162/5 168/168/5 167/153/5 172/161/5 
s 23
f 172/161/4 167/153/4 166/152/4 171/159/4 
s 25
f 171/159/6 166/152/6 165/169/6 169/160/6 
s 24
f 160/170/1 164/155/1 161/158/1 159/171/1 
s 26
f 159/172/5 161/145/5 162/146/5 157/173/5 
s 27
f 157/174/3 162/147/3 163/148/3 158/175/3 
s 25
f 158/176/6 163/149/6 164/150/6 160/177/6 
# 162 polygons

